<mxfile host="Electron" modified="2025-04-03T20:02:22.424Z" agent="Mozilla/5.0 (Windows NT 10.0; Win64; x64) AppleWebKit/537.36 (KHTML, like Gecko) draw.io/24.6.4 Chrome/124.0.6367.207 Electron/30.0.6 Safari/537.36" etag="RBsBh4Ir-DpJgcuE5uQY" version="24.6.4" type="device">
  <diagram name="Seite-1" id="s7gUODB2efPsvD1GkWfo">
    <mxGraphModel dx="1621" dy="18" grid="1" gridSize="10" guides="1" tooltips="1" connect="1" arrows="1" fold="1" page="1" pageScale="1" pageWidth="827" pageHeight="1169" math="0" shadow="0">
      <root>
        <mxCell id="0" />
        <mxCell id="1" parent="0" />
        <mxCell id="0Nx96VNxOC1_JgaXFZTj-9" style="edgeStyle=orthogonalEdgeStyle;rounded=0;orthogonalLoop=1;jettySize=auto;html=1;entryX=0;entryY=0.5;entryDx=0;entryDy=0;" edge="1" parent="1" source="0Nx96VNxOC1_JgaXFZTj-2" target="0Nx96VNxOC1_JgaXFZTj-8">
          <mxGeometry relative="1" as="geometry" />
        </mxCell>
        <object label="Server Administrator&lt;div&gt;&lt;br&gt;&lt;/div&gt;" id="0Nx96VNxOC1_JgaXFZTj-2">
          <mxCell style="shape=umlActor;verticalLabelPosition=bottom;verticalAlign=top;html=1;outlineConnect=0;" vertex="1" parent="1">
            <mxGeometry x="-50" y="1445" width="90" height="190" as="geometry" />
          </mxCell>
        </object>
        <mxCell id="0Nx96VNxOC1_JgaXFZTj-14" style="edgeStyle=orthogonalEdgeStyle;rounded=0;orthogonalLoop=1;jettySize=auto;html=1;exitX=0.5;exitY=0;exitDx=0;exitDy=0;entryX=0;entryY=0.5;entryDx=0;entryDy=0;" edge="1" parent="1" source="0Nx96VNxOC1_JgaXFZTj-8" target="0Nx96VNxOC1_JgaXFZTj-10">
          <mxGeometry relative="1" as="geometry" />
        </mxCell>
        <mxCell id="0Nx96VNxOC1_JgaXFZTj-16" style="edgeStyle=orthogonalEdgeStyle;rounded=0;orthogonalLoop=1;jettySize=auto;html=1;exitX=1;exitY=0;exitDx=0;exitDy=0;entryX=0;entryY=0.5;entryDx=0;entryDy=0;" edge="1" parent="1" source="0Nx96VNxOC1_JgaXFZTj-8" target="0Nx96VNxOC1_JgaXFZTj-12">
          <mxGeometry relative="1" as="geometry" />
        </mxCell>
        <mxCell id="0Nx96VNxOC1_JgaXFZTj-17" style="edgeStyle=orthogonalEdgeStyle;rounded=0;orthogonalLoop=1;jettySize=auto;html=1;exitX=1;exitY=1;exitDx=0;exitDy=0;entryX=0;entryY=0.5;entryDx=0;entryDy=0;" edge="1" parent="1" source="0Nx96VNxOC1_JgaXFZTj-8" target="0Nx96VNxOC1_JgaXFZTj-11">
          <mxGeometry relative="1" as="geometry" />
        </mxCell>
        <mxCell id="0Nx96VNxOC1_JgaXFZTj-18" style="edgeStyle=orthogonalEdgeStyle;rounded=0;orthogonalLoop=1;jettySize=auto;html=1;exitX=0.5;exitY=1;exitDx=0;exitDy=0;entryX=0;entryY=0.5;entryDx=0;entryDy=0;" edge="1" parent="1" source="0Nx96VNxOC1_JgaXFZTj-8" target="0Nx96VNxOC1_JgaXFZTj-13">
          <mxGeometry relative="1" as="geometry" />
        </mxCell>
        <mxCell id="0Nx96VNxOC1_JgaXFZTj-8" value="Check Hardware" style="ellipse;whiteSpace=wrap;html=1;" vertex="1" parent="1">
          <mxGeometry x="160" y="1500" width="120" height="80" as="geometry" />
        </mxCell>
        <mxCell id="0Nx96VNxOC1_JgaXFZTj-10" value="Check CPU" style="ellipse;whiteSpace=wrap;html=1;" vertex="1" parent="1">
          <mxGeometry x="390" y="1260" width="120" height="80" as="geometry" />
        </mxCell>
        <mxCell id="0Nx96VNxOC1_JgaXFZTj-11" value="Check Storage" style="ellipse;whiteSpace=wrap;html=1;" vertex="1" parent="1">
          <mxGeometry x="390" y="1580" width="120" height="80" as="geometry" />
        </mxCell>
        <mxCell id="0Nx96VNxOC1_JgaXFZTj-12" value="Check RAM" style="ellipse;whiteSpace=wrap;html=1;" vertex="1" parent="1">
          <mxGeometry x="390" y="1420" width="120" height="80" as="geometry" />
        </mxCell>
        <mxCell id="0Nx96VNxOC1_JgaXFZTj-13" value="Check Network" style="ellipse;whiteSpace=wrap;html=1;" vertex="1" parent="1">
          <mxGeometry x="390" y="1740" width="120" height="80" as="geometry" />
        </mxCell>
        <mxCell id="0Nx96VNxOC1_JgaXFZTj-21" value="&amp;lt;&amp;lt;include&amp;gt;&amp;gt;" style="text;html=1;align=center;verticalAlign=middle;whiteSpace=wrap;rounded=0;" vertex="1" parent="1">
          <mxGeometry x="250" y="1270" width="60" height="30" as="geometry" />
        </mxCell>
        <mxCell id="0Nx96VNxOC1_JgaXFZTj-23" value="&amp;lt;&amp;lt;include&amp;gt;&amp;gt;" style="text;html=1;align=center;verticalAlign=middle;whiteSpace=wrap;rounded=0;" vertex="1" parent="1">
          <mxGeometry x="260" y="1480" width="60" height="30" as="geometry" />
        </mxCell>
        <mxCell id="0Nx96VNxOC1_JgaXFZTj-24" value="&amp;lt;&amp;lt;include&amp;gt;&amp;gt;" style="text;html=1;align=center;verticalAlign=middle;whiteSpace=wrap;rounded=0;" vertex="1" parent="1">
          <mxGeometry x="260" y="1570" width="60" height="30" as="geometry" />
        </mxCell>
        <mxCell id="0Nx96VNxOC1_JgaXFZTj-25" value="&amp;lt;&amp;lt;include&amp;gt;&amp;gt;" style="text;html=1;align=center;verticalAlign=middle;whiteSpace=wrap;rounded=0;" vertex="1" parent="1">
          <mxGeometry x="260" y="1780" width="60" height="30" as="geometry" />
        </mxCell>
      </root>
    </mxGraphModel>
  </diagram>
</mxfile>
